# xmcd CD database file
#
# Track frame offsets:
#	150
#	18199
#	32974
#	43991
#	73372
#	89147
#	108619
#	126865
#	139518
#	160203
#	186519
#	202079
#
# Disc length: 3044 seconds
#
# Revision: 0
# Processed by: cddbd v1.5.1PL0 Copyright (c) Steve Scherf et al.
# Submitted via: CDex 1.51
#
DISCID=bd0be20c
DTITLE=Uncle Lightnin' - Sunday Breakfast
DYEAR=1996
DGENRE=Country
TTITLE0=Let Me Know
TTITLE1=September 9
TTITLE2=Doin' My Time
TTITLE3=Idiot Boy
TTITLE4=Stars Over Texas
TTITLE5=The Stranger
TTITLE6=Alice Ann
TTITLE7=Lonesome Hobo Blues
TTITLE8=Old Lover's Waltz
TTITLE9=Something Big
TTITLE10=Life's Railway To Heaven
TTITLE11=Titanic
EXTD=YEAR: 1996
EXTT0=
EXTT1=
EXTT2=
EXTT3=
EXTT4=
EXTT5=
EXTT6=
EXTT7=
EXTT8=
EXTT9=
EXTT10=
EXTT11=
PLAYORDER=
